# Blender 5.1.0
# www.blender.org
mtllib grass_field.mtl
o grassy_floor
v 42.473629 -0.494256 -47.566277
v 42.473629 0.494256 -47.566277
v 42.473629 -0.494256 98.617142
v 42.473629 0.494256 98.617142
v -42.473629 -0.494256 -47.566277
v -42.473629 0.494256 -47.566277
v -42.473629 -0.494256 98.617142
v -42.473629 0.494256 98.617142
vn 1.0000 -0.0000 -0.0000
vn -0.0000 -0.0000 1.0000
vn -1.0000 -0.0000 -0.0000
vn -0.0000 -0.0000 -1.0000
vn -0.0000 -1.0000 -0.0000
vn -0.0000 1.0000 -0.0000
vt 0.957362 0.490699
vt 0.075906 -0.390757
vt 0.075906 0.490699
vt 0.957362 1.372154
vt 0.075906 0.490699
vt 0.075906 1.372154
vt 0.957362 0.490699
vt 0.957362 -0.390757
s 0
usemtl Grass_Landscape
f 2/1/1 3/2/1 1/3/1
f 4/4/2 7/5/2 3/6/2
f 8/7/3 5/6/3 7/5/3
f 6/8/4 1/3/4 5/2/4
f 7/8/5 1/3/5 3/1/5
f 4/4/6 6/5/6 8/7/6
f 2/1/1 4/8/1 3/2/1
f 4/4/2 8/7/2 7/5/2
f 8/7/3 6/4/3 5/6/3
f 6/8/4 2/1/4 1/3/4
f 7/8/5 5/2/5 1/3/5
f 4/4/6 2/6/6 6/5/6
